/* XPM */
static char *_45cdd5ba48b4610d09c4113cb7c34aetdIcL6uqddPTXcqI[] = {
/* columns rows colors chars-per-pixel */
"32 32 3 1 ",
"  c #B86F1C",
". c #A36825",
"X c #CD8839",
/* pixels */
"      X          .              ",
"  X   X .      .        .       ",
"    XX. . .    X      .   ..    ",
"     .   X    X  .             .",
"   .         .X.XX  ..  X..     ",
"XX          .. X  .  . . .   .  ",
"        .       X      . .   .  ",
"   X      X        .   .  .  .  ",
"       .   .   X           X X  ",
"   X X  ..                 XX   ",
"         .          .    XX     ",
"   X                 X      X   ",
"             X           X      ",
"   X   X               X        ",
"                X  .         X  ",
"     .                     X   X",
"       X         .         .. X.",
"   . .  XX    X           .     ",
"  .  .  X                      X",
"               X ..      X X X. ",
"  X .  X        X   X           ",
"   .    .    XX        XX   .. .",
"    X                     X X   ",
"        .    .  X          ... .",
"    X                     .     ",
"   . X       X.X .       XX  .X ",
"   .  X .  X  XX  X    .  X. ...",
"XX   .  . .  . X           XX ..",
"          . X  XX        .X    .",
"            X .X..           .  ",
"..              .X X X          ",
"..              .X X X          "
};
