/* XPM */
static char *_649140960112[] = {
/* columns rows colors chars-per-pixel */
"32 32 31 1 ",
"  c #335D2B",
". c #36612C",
"X c #3B652C",
"o c #3E692D",
"O c #436D2E",
"+ c #46702E",
"@ c #49722F",
"# c #456E30",
"$ c #477130",
"% c #4B7531",
"& c #4F7832",
"* c #537C33",
"= c #587F34",
"- c #578034",
"; c #5C8436",
": c #5F8933",
"> c #608736",
", c #628937",
"< c #648739",
"1 c #658C38",
"2 c #688F39",
"3 c #65903A",
"4 c #6C933A",
"5 c #70963C",
"6 c #749A3D",
"7 c #799E3E",
"8 c #7CA13F",
"9 c #7D9D40",
"0 c #7EA340",
"q c #81A641",
"w c #84A941",
/* pixels */
"Oo-,5q6>=2,@.&552247w50q;*&oXX*;",
"1,oo*5604**OoO&*,>466;q5275-XO69",
"21*&++70244>  o*4>&#+-2>486;5935",
"7;77O.;3>704O+:56,5@OO;424-$17qw",
",-,1*X%4154&.,q5051;1*X24-*493q0",
"q6**@X%56>&&@34qw6>65&XO$--05904",
"q425,oX;=&,@5838711*,-oo#X#;1853",
"4>6q5%X;%oOo<10q4w8;*&o;6>&OO-,1",
"4146*X;02-oX$464;824w2554>6$%o;0",
"571*-045:9&&$#4542>56>06q91,4=.1",
">>%;-99w03,0;.&0q552253ww4:44&o#",
"-*o*630w4--9-#.:653,9048934=;-XX",
"%o ;940669---XX*;*1O;,qq3q8;-=##",
"24%oo10,0011;% Xo**O7861;714q,,8",
"14**&o:;61308;.o1;OO%;5654;64w46",
"0220-X*041481%;37,6=++O8q571;40w",
"3;;4;o.9574;%*q5073=1,X%732172qq",
"70;&&XX341*=>;20q8218;O.&->276q5",
"q7153- o*;O#;047841-;>%#O+$+;79;",
"4,309:.X%#X *45w58w4*&,834%OO,1,",
"6346:$o99;*XX;56=76,4w4615&**o5w",
"&*,-$993,4;&&o2261,2;50w8228;--*",
"@OO%-40qq9;74Oo47652720q3>;<3715",
"*>*.:45q9,-4>&54*#O@66q570,w5754",
"48*o&677562*555>6-%+o48>q5>4qw72",
"-,;O >q47w4=76w84-52X&1,55827q1>",
">&&oX54;25>227w7,,6;O.5q6257w50w",
"285= 44q634q57755>-;&=;*&O;56-q5",
"406-.-1,;>*15w4qq4*=2716@OO-222,",
"34-$&761=oo=55=54,1w4744*:=X5q64",
"4=&09444:*@O>37211>40w8248*o%555",
"O--39wq6;85Oo40765q38q,>=,>O ,;2"
};
